<?xml version="1.0" encoding="UTF-8"?>
<svg id="Layer_2" data-name="Layer 2" xmlns="http://www.w3.org/2000/svg" viewBox="0 0 519.23 533.84">
  <defs>
    <style>
      .cls-1 {
        fill: #fefae0;
      }

      .cls-1, .cls-2, .cls-3 {
        stroke-width: 0px;
      }

      .cls-2 {
        fill: #283618;
      }

      .cls-2, .cls-3 {
        fill-rule: evenodd;
      }

      .cls-3 {
        fill: #bc6c25;
      }
    </style>
  </defs>
  <g id="Light">
    <g>
      <path class="cls-2" d="M452.72,99.32h-177.07l-.12.24h-12.55c-54.86,0-104.5,32.5-126.42,82.77l-4.38,10.02-12.88,29.49-19.71,45.11-30.29,69.38-19.14,43.86c-8.77-13.74-16.22-28.41-22.15-43.86-8.41-21.8-13.83-45.08-15.77-69.38-.54-6.62-.8-13.3-.8-20.07,0-8.47.42-16.82,1.22-25.05,1.01-10.02,2.62-19.86,4.77-29.49,7.63-34.14,22.3-65.62,42.4-92.79.03-.09.09-.15.15-.24C104.63,39.03,175.94,0,256.33,0s151.73,39.03,196.39,99.32Z"/>
      <path class="cls-3" d="M234.81,192.34l-32.31,74.6h240.2c0,38.32-31.06,69.38-69.38,69.38h-200.87l-67.23,155.2-18.33,42.32L0,496.2l18.33-42.32,113.28-261.54,3.72-8.59s.03-.07.05-.11c22.23-51.2,72.73-84.33,128.55-84.33h255.3c0,25.69-10.41,48.95-27.25,65.78-16.83,16.84-40.09,27.25-65.77,27.25h-191.4Z"/>
      <path class="cls-2" d="M492.67,182.02c5.61,20.66,8.59,42.4,8.59,64.85,0,136.35-109.66,246.87-244.93,246.87-37.06,0-72.18-8.29-103.67-23.17-4.8,11.72-21.02,20.36-40.31,20.36-2.56,0-5.07-.15-7.48-.45l16.43-37.63,6.56-15.03,44.34-101.52h201.14c19.14,0,36.49-7.75,49.05-20.3,12.55-12.55,20.33-29.91,20.33-49.08h-240.25l19.71-45.11,12.88-29.49h191.62c23.82,0,45.59-8.97,62.02-23.76,1.22-1.1,2.44-2.24,3.61-3.4,9.63-9.63,17.17-21.35,21.82-34.44-2.39,19.2-10.02,36.82-21.44,51.28Z"/>
      <g>
        <g>
          <rect class="cls-1" x="241.35" y="278.89" width="13.88" height="13.89"/>
          <rect class="cls-1" x="214.83" y="278.89" width="13.88" height="13.89"/>
          <rect class="cls-1" x="267.86" y="278.89" width="13.9" height="13.89"/>
          <rect class="cls-1" x="294.39" y="278.89" width="13.88" height="13.89"/>
          <rect class="cls-1" x="320.92" y="278.89" width="13.88" height="13.89"/>
          <rect class="cls-1" x="347.43" y="278.89" width="13.9" height="13.89"/>
          <rect class="cls-1" x="373.96" y="278.89" width="13.88" height="13.89"/>
          <rect class="cls-1" x="400.48" y="278.89" width="13.88" height="13.89"/>
        </g>
        <g>
          <rect class="cls-1" x="188.4" y="309.26" width="13.88" height="13.89"/>
          <rect class="cls-1" x="214.89" y="309.26" width="13.9" height="13.89"/>
          <rect class="cls-1" x="241.39" y="309.26" width="13.88" height="13.89"/>
          <rect class="cls-1" x="267.89" y="309.26" width="13.88" height="13.89"/>
          <rect class="cls-1" x="294.38" y="309.26" width="13.9" height="13.89"/>
          <rect class="cls-1" x="320.88" y="309.26" width="13.88" height="13.89"/>
          <rect class="cls-1" x="347.38" y="309.26" width="13.88" height="13.89"/>
          <rect class="cls-1" x="373.87" y="309.26" width="13.88" height="13.89"/>
        </g>
      </g>
    </g>
  </g>
</svg>