<?xml version="1.0" encoding="UTF-8"?>
<svg id="Layer_2" data-name="Layer 2" xmlns="http://www.w3.org/2000/svg" viewBox="0 0 1714.98 533.84">
  <defs>
    <style>
      .cls-1 {
        fill: #fefae0;
      }

      .cls-1, .cls-2, .cls-3 {
        stroke-width: 0px;
      }

      .cls-2 {
        fill: #283618;
      }

      .cls-2, .cls-3 {
        fill-rule: evenodd;
      }

      .cls-3 {
        fill: #bc6c25;
      }
    </style>
  </defs>
  <g id="Light">
    <g>
      <g>
        <path class="cls-3" d="M1543.87,269.96c-5.48-6.52-11.99-12.7-18.5-18.88-43.16-39.8-102.77-75.83-142.18-109.8h0c-28.43-.68-79.82-2.4-108.25,14.07-34.26,19.56-3.77,46.67,17.47,63.82,46.25,36.72,96.62,64.85,136.35,109.46,3.43,0,6.51.34,9.6.34,44.53,4.8,158.96-.34,105.51-59.02h0Z"/>
        <g>
          <path class="cls-2" d="M1251.99,168.74c-.69-.69,0-6.86,1.71-14.41,2.06-7.55,5.48-16.48,11.65-28.48,18.5-36.37,41.45-87.5,80.85-98.48,68.18-19.21,183.62.68,254.89,7.21,30.15,2.75,75.71,6.18,101.06-14.07,3.08-2.75,4.45-4.81,5.48-7.21,1.03-2.4,2.05-5.15,2.4-7.55.68-2.41.34-4.46.68-5.49.34-.69.69,0,1.72,1.71.68,2.06,2.05,5.49,2.39,9.61.35,4.12.35,9.27-2.05,21.96-2.4,13.04-6.85,33.97-9.94,48.38-3.08,14.41-4.45,22.3-7.88,29.16-20.89,41.86-109.29,36.37-150.05,33.62-24.67-1.37-55.84-4.12-83.59-6.52-27.75-2.4-51.73-4.81-71.94-5.84-19.87-.68-36.31,0-51.05,1.37-14.73,1.38-28.09,3.09-38.37,5.15-10.28,1.71-17.13,3.09-23.64,6.52-6.51,3.43-12.68,8.92-16.79,14.06-4.11,5.15-6.51,9.95-7.54,9.27h0ZM1511.33,30.8l8.22,1.03c1.03,0,1.71,1.03,1.71,2.06l-1.37,13.04c-.34,1.03-1.03,1.71-2.06,1.71l-8.22-1.03c-1.02-.34-1.71-1.03-1.71-2.06l1.71-13.04c0-1.03.69-1.71,1.72-1.71h0ZM1487.35,29.09l8.22.68c1.03,0,1.71,1.03,1.37,2.06l-1.03,13.04c0,1.03-1.03,1.72-1.71,1.72l-8.57-1.03c-.68,0-1.71-.69-1.37-1.71l1.03-13.04c0-1.03,1.03-1.71,2.06-1.71h0ZM1317.42,50.36c.34-.69,2.06.34,2.06,1.37l1.37,4.46c0,1.03,0,2.06-.34,2.75-3.08,3.43-9.59,6.86-9.59,5.49-1.71-8.92,3.43-10.29,6.51-14.06h0ZM1261.24,144.03l2.06,6.86c-.35-1.02-6.51,7.89-6.51,6.52,0-5.49,2.74-18.87,4.46-13.38h0ZM1272.54,126.53c.69-.69,1.71,0,2.06,1.03l3.08,10.64c-.34-1.03-10.27,6.86-9.94,8.24l-3.43-10.3c-.69-2.4,6.51-8.23,8.22-9.61h0ZM1290.7,118.98c.69,0,1.71.69,2.05,1.38l2.4,13.03c.34,1.03-.34,2.06-1.37,2.06l-8.22,1.71c-.69.35-1.71-.34-1.71-1.37-1.37-6.52-6.51-13.73,6.85-16.81h0ZM1302.69,115.55l8.22-1.03c1.03-.34,1.72.35,2.06,1.38l1.72,13.03c0,1.03-.69,2.06-1.72,2.06l-8.22,1.03c-1.03.34-1.71-.34-2.06-1.37l-1.37-13.04c-.34-1.02.34-2.06,1.37-2.06h0ZM1323.93,112.12l8.22-.69c1.03-.35,2.05.69,2.05,1.37l1.03,13.38c0,1.03-.68,1.71-1.71,1.71l-8.22.68c-1.03.34-1.71-.34-1.71-1.37l-1.03-13.38c-.34-.68.34-1.71,1.37-1.71h0ZM1346.54,110.41l8.22-.34c1.03-.35,1.71.69,2.05,1.71l.69,13.04c0,1.03-.69,1.72-1.71,1.72l-8.23.69c-1.03,0-1.71-.69-2.06-1.72l-.69-13.03c0-1.03.69-2.06,1.71-2.06h0ZM1392.1,109.72l9.93.35c1.03.34,1.72,1.03,1.72,2.06l-1.03,13.04c0,1.03-1.03,1.71-2.05,1.71l-8.23-.68c-.68,0-1.37-.69-1.37-1.71l-.68-13.04c0-1.03,1.03-1.72,1.71-1.72h0ZM1369.15,109.04l8.56-.35c.69,0,1.72,1.02,1.72,1.71l.34,13.38c0,1.02-1.03,1.71-2.06,1.71l-8.22.35c-1.03,0-1.71-1.03-1.71-2.06v-13.04c-.34-1.03.68-1.71,1.37-1.71h0ZM1577.44,124.13l8.22-.34c1.03,0,1.72.69,1.72,1.71l.34,13.39c0,1.03-.69,1.71-1.71,1.71h-8.23c-1.02.34-1.71-.69-1.71-1.71l-.34-13.04c0-1.03.68-1.72,1.71-1.72h0ZM1417.11,112.12l8.22.68c1.03,0,1.71,1.03,1.71,2.06l-1.37,13.04c0,1.03-.68,1.72-1.71,1.72l-8.22-1.03c-1.03,0-1.72-1.03-1.72-2.06l1.38-13.04c0-1.03,1.02-1.72,1.71-1.37h0ZM1556.2,123.1l8.22.69c1.03.34,1.72,1.02,1.72,2.06l-1.37,13.04c0,1.03-1.03,1.71-2.06,1.71l-8.22-1.03c-.69,0-1.37-1.03-1.37-1.72l1.03-13.38c.34-.69,1.02-1.72,2.05-1.38h0ZM1533.93,121.38l8.23.69c1.02.35,1.71,1.03,1.71,2.06l-1.37,13.04c0,1.03-.69,1.72-1.71,1.72l-8.22-.69c-1.03-.35-1.72-1.03-1.72-2.06l1.37-13.04c0-1.03,1.03-1.72,1.71-1.72h0ZM1511.33,119.33l8.22,1.03c1.03,0,1.71,1.02,1.71,2.06l-1.37,13.04c0,1.03-1.03,1.71-1.71,1.37l-8.57-.68c-.68,0-1.37-1.03-1.37-2.06l1.37-13.04c0-1.02.69-1.71,1.72-1.71h0ZM1488.03,117.27l8.22.68c1.03.34,1.71,1.03,1.37,2.06l-1.02,13.04c-.35,1.03-1.03,1.71-2.06,1.71l-8.22-1.03c-1.03,0-1.71-.68-1.71-1.71l1.36-13.04c0-1.03,1.03-2.06,2.06-1.71h0ZM1464.72,115.21l8.23.69c1.02.34,1.71,1.02,1.37,2.06l-1.03,13.04c0,1.03-1.03,1.71-2.06,1.71l-8.22-1.02c-1.03,0-1.71-.69-1.71-1.72l1.37-13.04c.34-1.02,1.03-1.71,2.05-1.71h0ZM1440.4,113.84l8.23.69c1.02,0,1.71.69,1.71,1.71l-1.03,13.04c0,1.03-.68,1.72-1.71,1.72l-8.22-.69c-1.03,0-1.72-.68-1.72-1.72l1.03-13.38c0-.69.69-1.72,1.71-1.37h0ZM1333.52,39.72c.68-.34,2.05.35,2.4,1.37l2.06,8.92c.34,2.06-10.28,5.49-10.97,3.78-3.43-9.61,1.03-10.98,6.51-14.07h0ZM1370.18,28.75l8.56-1.03c1.03,0,1.71.69,2.05,1.71l1.38,12.69c0,1.03-.69,1.72-1.72,2.06l-8.22,1.03c-1.03,0-2.05-.68-2.05-1.71l-1.38-12.7c-.34-1.03.35-2.06,1.38-2.06h0ZM1346.88,33.55l8.91-1.37c1.02-.35,1.71.34,2.05,1.37l1.37,12.01c.35,1.03-.34,2.06-1.37,2.41l-8.22,1.37c-1.03.34-2.06-.69-2.06-1.37l-2.06-12.01c0-1.03.69-2.06,1.37-2.4h0ZM1417.45,25.99h8.22c1.03,0,1.72.69,1.72,1.72v13.38c-.35,1.03-1.03,1.71-2.06,1.71h-8.22c-1.03-.34-1.71-1.03-1.71-2.05l.34-13.04c0-1.03.68-1.72,1.71-1.72h0ZM1394.16,27.02h8.56c1.03,0,1.71.69,1.71,1.72v12.69c.34,1.03-.68,1.71-1.71,1.71l-8.56.34c-1.03,0-1.72-.69-1.72-1.72v-12.69c0-1.03.69-1.72,1.72-2.06h0ZM1464.04,27.02l8.22,1.03c1.03,0,1.71.69,1.71,1.71l-1.71,13.04c0,1.03-1.03,1.72-1.71,1.72l-8.57-1.03c-.68,0-1.36-1.03-1.36-2.06l1.36-13.04c.35-1.03,1.03-1.72,2.06-1.38h0ZM1440.74,25.65l8.57.68c1.03,0,1.71,1.03,1.71,2.06l-1.37,12.35c0,1.02-.68,2.05-1.71,1.71l-8.56-.69c-1.03,0-1.72-.68-1.72-1.71l1.03-12.7c.34-1.03,1.03-1.71,2.05-1.71h0ZM1692.54,98.39c0-.34,1.03,0,1.38.69.34,2.06,0,6.18-2.06,9.26l-3.42-5.83s3.76-2.75,4.1-4.12h0ZM1710.7,14.33c0-.68,1.37-.34,1.37.34.69,2.75.35,8.24-1.37,13.04l-3.42-6.52c0-.34,3.42-5.15,3.42-6.86h0ZM1677.47,108.35l5.48-2.4c.69-.68,1.72,0,2.4.69l3.43,6.86c.34.69-6.51,9.27-7.54,6.87l-4.45-9.61c-.34-.69,0-2.06.68-2.4h0ZM1661.37,114.52l6.85-1.71c1.03-.34,1.72.34,2.06,1.03l3.77,9.26c1.02,2.4-1.37,5.83-8.23,7.89-1.02,0-2.05-.34-2.05-1.37l-3.43-12.7c-.34-1.02.35-2.05,1.03-2.4h0ZM1643.22,120.02l7.19-1.72c1.03-.34,2.06.34,2.06,1.37l2.74,12.69c.34,1.03-.35,2.06-1.03,2.06l-8.22,2.06c-1.03.34-2.06-.34-2.06-1.37l-2.06-13.04c-.34-1.03.35-1.71,1.38-2.05h0ZM1622.32,123.1l8.22-.69c1.03-.35,1.71.69,1.71,1.72l1.37,13.04c0,1.03-.68,1.72-1.71,1.72l-8.22,1.03c-1.03,0-1.71-.69-2.06-1.71l-1.03-13.04c0-1.03.69-2.06,1.72-2.06h0ZM1600.74,123.79h8.22c1.03,0,1.71.69,1.71,1.71l.34,13.04c0,1.03-.68,2.06-1.71,2.06h-8.22c-1.03,0-1.71-.69-2.06-1.71v-13.04c0-1.03.69-2.06,1.72-2.06h0ZM1699.74,29.77l3.43-4.11c.68-.34,1.36,0,1.36.34,3.09,7.21,6.86,8.24,4.12,10.64-.69.34-4.46,4.46-4.46,3.77l-5.48-9.61c0-.35.69-.68,1.03-1.03h0ZM1686.72,36.29l5.82-2.06c.69-.35,1.38,0,1.72.69l4.45,10.64c.34.68,0,1.38-.68,1.38l-6.85,3.43c-.69.34-1.38,0-1.72-.69l-3.42-11.66c0-.69,0-1.37.68-1.72h0ZM1669.59,40.75l7.54-1.38c1.03-.34,1.71.34,2.06,1.03l2.05,12.01c.34,1.03-.34,1.71-1.03,2.06l-9.25,2.75c-.68,0-1.71-.69-1.71-1.37l-1.03-13.04c0-1.03.34-1.71,1.37-2.05h0ZM1648.35,43.15l8.22-.35c1.03,0,2.06.69,2.06,1.72l.34,13.04c.35,1.03-.68,1.72-1.37,2.06l-9.59.68c-1.03.35-2.05-.68-1.71-1.71l.34-13.72c.34-.69.69-1.71,1.71-1.71h0ZM1625.06,42.81l8.22.35c1.03,0,1.71,1.03,1.71,2.06l-.68,13.04c0,1.03-1.03,1.71-1.72,1.71l-8.56-.34c-.68,0-1.71-1.03-1.37-2.06l.34-13.04c.35-1.03,1.03-1.72,2.06-1.72h0ZM1602.79,40.07l8.22,1.02c1.03.35,1.72,1.03,1.72,2.06l-1.72,13.04c0,1.03-.68,1.72-1.71,1.72l-8.22-1.03c-1.03,0-1.71-1.03-1.71-2.06l1.37-13.04c.34-1.02,1.02-1.71,2.05-1.71h0ZM1580.53,38.35l8.56.69c.68.34,1.37,1.03,1.37,2.06l-1.37,13.04c-.34,1.03-1.03,1.72-2.06,1.72l-8.22-1.03c-1.03,0-1.71-1.03-1.37-2.06l1.37-13.04c0-1.03,1.03-1.71,1.72-1.38h0ZM1557.91,35.95l8.57,1.03c.68,0,1.37,1.03,1.37,2.06l-1.37,13.04c-.34,1.03-1.03,1.72-2.06,1.37l-8.22-1.03c-1.03,0-1.71-1.03-1.37-1.72l1.37-13.04c0-1.02,1.03-1.71,1.71-1.71h0ZM1534.62,33.2l8.22,1.03c1.03.34,1.72,1.03,1.72,2.06l-1.72,13.04c0,1.03-1.03,1.72-1.71,1.72l-8.56-1.03c-.69-.34-1.38-1.03-1.38-2.06l1.38-13.04c.34-1.03,1.02-1.72,2.05-1.72h0Z"/>
          <path class="cls-2" d="M1118.03,493.68c-1.02-.69-.68-6.86.69-14.75,1.71-7.55,4.45-16.47,9.93-28.83,16.11-37.4,35.97-90.24,74.69-103.97,66.8-23.33,183.28-11.32,254.89-9.26,30.14.68,75.7,1.37,99.68-20.58,3.09-3.09,4.46-5.15,5.14-7.55,1.03-2.4,1.72-5.15,2.06-7.55.34-2.75,0-4.81.34-5.83,0-.69.69,0,1.71,1.71,1.03,2.06,2.4,5.49,3.09,9.61.68,4.12.68,8.92-1.03,21.96-1.37,13.03-4.45,34.31-6.85,48.72-2.06,14.75-3.08,22.65-6.17,29.85-18.15,42.89-106.55,43.23-147.66,43.23-24.66.35-55.84-.34-83.59-1.02-27.75-.69-52.07-1.38-72.28-1.03-19.87.68-36.32,2.4-50.71,4.45-14.73,2.41-28.09,5.15-38.02,7.89-9.94,2.41-17.13,4.46-23.3,8.24-6.5,3.77-11.99,9.6-15.75,14.75-3.77,5.49-6.17,10.63-6.86,9.95h0ZM1368.46,338.93l8.23.69c.68,0,1.71.69,1.71,1.71l-.69,13.38c-.34.68-1.02,1.71-2.05,1.71l-8.22-.68c-1.03,0-1.72-.69-1.72-1.72l.69-13.38c0-.68,1.03-1.71,2.05-1.71h0ZM1344.14,338.93l8.22.34c1.03,0,1.72.69,1.72,1.72l-.35,13.04c0,1.03-.68,1.72-1.71,1.72h-8.57c-.68-.35-1.71-1.03-1.37-2.06l.35-13.04c0-1.03.68-1.71,1.71-1.71h0ZM1175.93,371.53c.34-1.03,2.05,0,2.39,1.03l1.03,4.11c.34,1.03.69,2.06,0,2.75-2.74,3.77-8.91,7.89-9.25,6.17-2.06-8.58,2.74-10.29,5.83-14.06h0ZM1125.57,468.62l2.4,6.52c-.35-.68-5.83,8.23-5.83,6.86-.35-5.49,1.37-18.86,3.42-13.38h0ZM1135.51,450.1c.69-.68,2.06,0,2.39,1.03l3.77,10.63c-.69-1.03-9.94,7.21-9.59,8.58l-3.77-9.95c-.68-2.4,5.83-8.57,7.2-10.29h0ZM1153.32,441.53c1.02,0,1.71.34,2.05,1.37l3.43,12.69c.34,1.03-.34,2.06-1.37,2.06l-7.88,2.4c-1.03.34-1.71-.34-2.05-1.03-1.72-6.86-7.2-13.72,5.83-17.49h0ZM1164.97,437.41l8.23-1.72c1.02-.34,2.05.35,2.05,1.37l2.4,12.7c.34,1.03-.34,2.06-1.37,2.4l-7.88,1.71c-1.02,0-2.05-.68-2.05-1.71l-2.4-12.69c-.34-1.03.34-2.06,1.03-2.06h0ZM1186.21,432.25l8.22-1.03c1.03-.34,1.72.35,2.06,1.38l1.71,13.03c.35,1.03-.34,2.06-1.37,2.06l-8.23,1.37c-1.02,0-1.71-.68-2.05-1.71l-1.71-13.04c-.34-1.03.34-1.71,1.37-2.06h0ZM1208.47,429.18l8.56-1.03c.69,0,1.72.68,1.72,1.71l1.71,13.04c0,1.03-.69,1.71-1.71,2.05l-8.22,1.03c-1.03,0-1.71-.68-1.71-1.71l-1.71-13.04c0-1.03.69-1.71,1.37-2.05h0ZM1254.38,425.74l9.6-.35c1.02,0,1.71,1.03,1.71,2.06v13.04c0,1.03-1.02,1.71-2.06,1.71h-8.22c-.69,0-1.71-1.03-1.71-1.71l-1.37-13.04c0-1.03,1.03-1.71,2.06-1.71h0ZM1231.43,426.42l8.22-.68c.69-.35,1.72.68,1.72,1.37l1.02,13.38c0,1.03-.69,1.71-1.71,1.71l-8.23.69c-1.03.34-1.71-.35-1.71-1.37l-1.03-13.38c0-.69.69-1.72,1.71-1.72h0ZM1439.72,427.79l8.56-.68c.69-.34,1.71.68,1.71,1.71l1.03,13.04c0,1.03-.68,1.71-1.71,1.71l-8.22.69c-1.03.34-1.71-.34-1.71-1.37l-1.03-13.38c0-.69.68-1.72,1.37-1.72h0ZM1279.39,426.08l8.22.34c1.03,0,1.72,1.03,1.72,2.06l-.68,13.04c0,1.02-.69,1.71-1.72,1.71l-8.22-.34c-1.03,0-1.71-.69-1.71-1.72l.34-13.38c0-.68,1.03-1.71,2.06-1.71h0ZM1418.48,428.14l8.56.34c1.03,0,1.71.69,1.71,1.71l-.68,13.38c0,.69-.68,1.72-1.71,1.72l-8.22-.35c-1.03,0-1.72-1.02-1.72-2.05l.34-13.04c0-1.03,1.03-1.71,1.72-1.71h0ZM1396.55,427.79l8.22.35c1.03,0,1.72,1.03,1.72,2.05l-.69,13.04c0,1.03-.68,1.71-1.71,1.71l-8.22-.34c-1.03,0-1.71-.68-1.71-1.71l.34-13.38c0-.69,1.03-1.72,2.05-1.72h0ZM1373.6,427.46l8.22.34c1.03,0,2.06,1.03,1.72,1.72l-.35,13.38c0,1.03-.68,1.71-1.71,1.71l-8.22-.34c-1.03,0-1.71-1.03-1.71-2.06l.34-13.03c0-1.03.68-1.72,1.71-1.72h0ZM1349.96,426.78l8.57.34c.68,0,1.71,1.03,1.71,1.71l-.68,13.39c0,1.03-.69,1.72-1.72,1.72l-8.22-.35c-1.03,0-1.71-1.03-1.71-2.05l.34-13.04c0-1.03,1.03-1.71,1.71-1.71h0ZM1326.67,426.42h8.57c.69.35,1.71,1.03,1.71,2.06l-.68,13.04c0,1.02-.69,1.71-1.71,1.71l-8.23-.34c-1.03,0-1.71-.69-1.71-1.72l.34-13.03c0-1.03,1.03-2.06,1.71-1.72h0ZM1302.69,426.42h8.22c1.03,0,1.72,1.03,1.72,2.06l-.35,13.04c0,1.02-.69,1.71-1.71,1.71h-8.23c-1.03,0-1.71-1.03-1.71-1.71l.34-13.38c0-1.03.69-1.72,1.71-1.72h0ZM1191.35,359.86c.69-.68,2.06,0,2.39,1.02l2.74,8.58c.69,2.4-10.28,6.52-10.96,4.46-3.77-9.26.68-10.98,5.83-14.07h0ZM1227.32,346.13l8.22-1.37c1.02-.34,2.06.34,2.06,1.37l2.4,12.7c0,1.03-.35,1.71-1.37,2.06l-8.57,1.38c-1.03.34-1.71-.35-2.06-1.38l-2.06-12.35c-.34-1.03.34-2.06,1.37-2.41h0ZM1204.36,352.65l8.57-2.06c1.02-.34,2.05.34,2.05,1.38l2.4,12.01c.34,1.03-.35,2.06-1.37,2.06l-8.23,2.06c-.69.34-1.71-.35-2.06-1.38l-2.74-12c0-.69.34-1.72,1.37-2.06h0ZM1274.25,340.3l8.23-.34c1.03,0,1.71.68,1.71,1.71l.69,13.04c0,1.03-.69,1.71-1.72,1.71l-8.22.69c-1.03,0-1.71-.69-1.71-1.72l-.69-13.38c0-.68.69-1.71,1.71-1.71h0ZM1250.96,343.05l8.57-.69c1.02,0,1.71.69,2.06,1.72l.68,12.35c.34,1.03-.68,2.06-1.37,2.06l-8.91.69c-.69.34-1.71-.69-1.71-1.72l-1.02-12.35c0-1.02.68-2.06,1.71-2.06h0ZM1320.84,338.24l8.23.34c1.03.35,1.71,1.03,1.71,2.06l-.69,13.04c0,1.03-1.03,1.71-1.72,1.71l-8.56-.34c-.69,0-1.72-1.03-1.37-2.06l.68-13.03c0-1.03.69-1.72,1.71-1.72h0ZM1297.55,338.58h8.57c1.02,0,1.71,1.03,1.71,2.06l-.34,12.35c0,1.03-1.03,2.06-1.72,2.06l-8.9-.34c-1.02,0-1.71-.69-1.71-1.72l.34-12.69c0-1.03,1.03-1.72,2.06-1.72h0ZM1553.12,394.52c0-.34,1.37.34,1.37.69.68,2.05.34,6.17-1.37,9.6l-3.77-5.49c0-.34,3.43-3.43,3.77-4.8h0ZM1566.14,309.42c0-.69,1.37-.34,1.37.34,1.03,2.74,1.03,8.24-.35,13.04l-4.11-6.18c0-.34,3.09-5.49,3.09-7.2h0ZM1538.73,405.5l5.14-2.75c1.03-.68,2.05-.34,2.4.69l4.11,6.52c.34.68-5.82,9.6-6.85,7.54l-5.14-9.6c-.69-.69-.34-1.72.34-2.4h0ZM1523.32,412.7l6.5-2.06c1.03-.34,1.72,0,2.06,1.03l4.45,8.92c1.03,2.4-1.02,5.83-7.88,8.23-1.02.35-2.05-.34-2.39-1.37l-3.77-12.35c-.35-1.03,0-2.06,1.03-2.4h0ZM1505.16,419.56l7.19-2.4c1.03-.34,2.06.34,2.4,1.37l3.43,12.35c.34,1.03-.35,2.06-1.37,2.4l-7.88,2.4c-.69.35-1.72-.34-2.06-1.37l-2.74-12.69c-.34-1.03,0-2.06,1.03-2.06h0ZM1484.61,423.68l8.22-1.03c1.02-.35,1.71.34,2.05,1.37l1.72,13.03c.34,1.03-.35,2.06-1.38,2.06l-8.22,1.38c-1.03,0-1.71-.69-2.05-1.72l-1.72-13.03c-.34-.69.35-1.72,1.38-2.06h0ZM1463.01,426.08l8.22-.69c1.03,0,1.72.69,2.06,1.72l1.03,13.03c0,1.03-.69,1.72-1.71,2.06l-8.23.69c-1.02,0-1.71-.69-2.05-1.72l-1.03-13.03c0-1.03.68-2.06,1.71-2.06h0ZM1556.2,325.55l3.43-4.11c.34-.35,1.02-.35,1.37.34,3.42,6.87,7.19,7.55,4.45,10.3-.34.34-4.11,4.8-4.11,4.12l-5.82-9.27c-.35-.69.34-.69.68-1.37h0ZM1543.87,333.1l5.48-2.75c.69-.34,1.37,0,1.71.69l5.14,10.29c.35.68,0,1.37-.68,1.71l-6.51,3.78c-.69.34-1.71.34-1.71-.35l-4.12-11.67c-.34-.69,0-1.37.69-1.71h0ZM1526.74,338.58l7.54-2.06c.68-.34,1.71.34,2.05,1.37l2.74,11.66c.35,1.03-.34,1.72-1.02,2.06l-8.91,3.09c-.69.34-1.71-.34-2.06-1.03l-1.37-13.04c0-1.03.35-1.71,1.03-2.06h0ZM1505.84,342.36l8.23-1.03c1.02,0,1.71.68,2.05,1.71l1.37,13.04c0,1.03-.68,1.72-1.71,2.06l-9.25,1.72c-1.03,0-2.06-.68-2.06-1.72l-.34-13.72c.34-1.03.69-2.06,1.71-2.06h0ZM1482.55,343.39h8.22c1.03,0,1.71.69,1.71,1.71v13.38c0,1.03-.68,1.71-1.71,1.71h-8.22c-1.03,0-1.71-.69-1.71-1.71v-13.04c0-1.03.68-2.06,1.71-2.06h0ZM1460.27,342.36l8.22.69c1.03,0,1.72.68,1.72,1.72l-.69,13.04c0,1.03-1.03,2.06-2.05,1.71l-8.23-.34c-1.02,0-1.71-1.03-1.71-1.72l.69-13.38c0-1.03,1.02-1.72,2.05-1.72h0ZM1438,342.02l8.23.34c1.02,0,1.71.69,1.71,1.72l-.69,13.38c0,1.03-1.02,1.72-2.05,1.72l-8.22-.69c-1.03,0-1.72-.69-1.72-1.72l.69-13.04c.34-1.03,1.03-2.06,2.05-1.71h0ZM1415.05,340.99l8.57.69c.68,0,1.71.69,1.37,1.72l-.34,13.03c-.35,1.03-1.03,2.06-2.06,1.72l-8.22-.34c-1.03,0-1.71-1.03-1.71-1.72l.68-13.38c0-1.03,1.03-1.71,1.71-1.71h0ZM1391.76,339.96l8.22.34c1.03.34,1.71,1.03,1.71,2.06l-.68,13.04c0,1.03-1.03,1.72-2.06,1.72l-8.22-.35c-1.03,0-1.71-1.02-1.71-2.06l.68-13.04c0-1.03,1.03-1.71,2.06-1.71h0Z"/>
        </g>
      </g>
      <g>
        <path class="cls-3" d="M96.15,271.21h224.19l6.18,14.37h-11.83v16.84h16.83v-5.22l47.09,109.5H37.61l58.54-135.49h0ZM250.62,285.57h16.84v16.84h-16.84v-16.84h0ZM218.62,285.57h16.83v16.84h-16.83v-16.84h0ZM282.66,285.57h16.84v16.84h-16.84v-16.84h0ZM58.47,375.48h16.82v16.84h-16.82v-16.84h0ZM250.62,375.48h16.84v16.84h-16.84v-16.84h0ZM346.73,375.48h16.82v16.84h-16.82v-16.84h0ZM314.69,375.48h16.83v16.84h-16.83v-16.84h0ZM218.62,375.48h16.83v16.84h-16.83v-16.84h0ZM282.66,375.48h16.84v16.84h-16.84v-16.84h0ZM154.54,375.48h16.85v16.84h-16.85v-16.84h0ZM122.51,375.48h16.83v16.84h-16.83v-16.84h0ZM90.48,375.48h16.84v16.84h-16.84v-16.84h0ZM186.55,375.48h16.84v16.84h-16.84v-16.84h0ZM154.54,285.57h16.85v16.84h-16.85v-16.84h0ZM122.51,285.57h16.83v16.84h-16.83v-16.84h0ZM90.48,285.57h16.84v16.84h-16.84v-16.84h0ZM186.55,285.57h16.84v16.84h-16.84v-16.84h0Z"/>
        <g>
          <path class="cls-2" d="M148.64,420.82H31.5L0,493.74h37.85c48.18,0,91.74-28.67,110.79-72.93h0Z"/>
          <path class="cls-2" d="M384.65,420.82l31.39,72.93h117.25l-100.77-233.23-1.48-3.43-89.92-208.12C328.29,19.24,299.02,0,266.65,0h0c-32.37,0-61.64,19.24-74.48,48.96l-89.92,208.13h117l47.75-110.16,47.21,110.16c18.75,43.27,37.3,86.66,55.91,130l8.48,19.61,6.05,14.12h0Z"/>
        </g>
      </g>
      <g>
        <path class="cls-2" d="M1031.38,99.32h-177.07l-.12.24h-12.55c-54.86,0-104.5,32.5-126.42,82.77l-4.38,10.02-12.88,29.49-19.71,45.11-30.29,69.38-19.14,43.86c-8.77-13.74-16.22-28.41-22.15-43.86-8.41-21.8-13.83-45.08-15.77-69.38-.54-6.62-.8-13.3-.8-20.07,0-8.47.42-16.82,1.22-25.05,1.01-10.02,2.62-19.86,4.77-29.49,7.63-34.14,22.3-65.62,42.4-92.79.03-.09.09-.15.15-.24C683.29,39.03,754.61,0,834.99,0s151.73,39.03,196.39,99.32Z"/>
        <path class="cls-3" d="M813.47,192.34l-32.31,74.6h240.2c0,38.32-31.06,69.38-69.38,69.38h-200.87l-67.23,155.2-18.33,42.32-86.89-37.64,18.33-42.32,113.28-261.54,3.72-8.59s.03-.07.05-.11c22.23-51.2,72.73-84.33,128.55-84.33h255.3c0,25.69-10.41,48.95-27.25,65.78-16.83,16.84-40.09,27.25-65.77,27.25h-191.4Z"/>
        <path class="cls-2" d="M1071.34,182.02c5.61,20.66,8.59,42.4,8.59,64.85,0,136.35-109.66,246.87-244.93,246.87-37.06,0-72.18-8.29-103.67-23.17-4.8,11.72-21.02,20.36-40.31,20.36-2.56,0-5.07-.15-7.48-.45l16.43-37.63,6.56-15.03,44.34-101.52h201.14c19.14,0,36.49-7.75,49.05-20.3,12.55-12.55,20.33-29.91,20.33-49.08h-240.25l19.71-45.11,12.88-29.49h191.62c23.82,0,45.59-8.97,62.02-23.76,1.22-1.1,2.44-2.24,3.61-3.4,9.63-9.63,17.17-21.35,21.82-34.44-2.39,19.2-10.02,36.82-21.44,51.28Z"/>
        <g>
          <g>
            <rect class="cls-1" x="820.01" y="278.89" width="13.88" height="13.89"/>
            <rect class="cls-1" x="793.49" y="278.89" width="13.88" height="13.89"/>
            <rect class="cls-1" x="846.52" y="278.89" width="13.9" height="13.89"/>
            <rect class="cls-1" x="873.05" y="278.89" width="13.88" height="13.89"/>
            <rect class="cls-1" x="899.58" y="278.89" width="13.88" height="13.89"/>
            <rect class="cls-1" x="926.09" y="278.89" width="13.9" height="13.89"/>
            <rect class="cls-1" x="952.62" y="278.89" width="13.88" height="13.89"/>
            <rect class="cls-1" x="979.14" y="278.89" width="13.88" height="13.89"/>
          </g>
          <g>
            <rect class="cls-1" x="767.06" y="309.26" width="13.88" height="13.89"/>
            <rect class="cls-1" x="793.55" y="309.26" width="13.9" height="13.89"/>
            <rect class="cls-1" x="820.05" y="309.26" width="13.88" height="13.89"/>
            <rect class="cls-1" x="846.55" y="309.26" width="13.88" height="13.89"/>
            <rect class="cls-1" x="873.04" y="309.26" width="13.9" height="13.89"/>
            <rect class="cls-1" x="899.54" y="309.26" width="13.88" height="13.89"/>
            <rect class="cls-1" x="926.04" y="309.26" width="13.88" height="13.89"/>
            <rect class="cls-1" x="952.54" y="309.26" width="13.88" height="13.89"/>
          </g>
        </g>
      </g>
    </g>
  </g>
</svg>